<svg width="68" height="46" viewBox="0 0 68 46" fill="none" xmlns="http://www.w3.org/2000/svg">
<path d="M40.2656 6.01378C40.5171 4.5677 40.7993 3.56443 41.7037 2.47738C42.6856 1.27797 44.0388 0.577943 45.4664 0.530769C46.2975 0.511009 47.1809 0.544184 48.0197 0.538278C48.6909 0.573349 49.4297 0.47827 50.093 0.56263C52.8024 0.907287 54.864 3.84924 54.9221 6.95625L44.5878 6.95625C44.564 8.89463 44.5862 10.5515 44.5878 12.4956L46.6772 12.4956L48.5768 12.4956C49.3535 12.4949 50.1452 12.4459 50.898 12.673C51.8994 12.9752 52.6876 13.5211 53.4135 14.3553C54.3863 15.4629 54.8116 17.5888 54.9221 19.13C53.0051 19.1984 51.1455 19.1341 49.2178 19.13H40.2656C40.1805 20.7782 39.726 21.403 38.7035 22.6069C37.7709 23.6974 36.5071 24.3239 35.1812 24.3532L35.1953 20.8221C35.2033 18.81 35.0503 17.0299 36.0825 15.2594C37.0831 13.5431 38.5565 17.8032 40.2235 17.3909C38.6631 17.4292 36.7846 18.4405 35.2175 18.4358L35.1896 8.27785C35.1934 6.26226 35.0994 4.58681 36.2268 2.87424C37.0502 1.59791 38.2862 0.762776 39.652 0.560007C39.8478 0.530696 40.0548 0.537548 40.253 0.53711L40.2527 3.80956C40.2515 4.51404 40.2339 5.32125 40.2656 6.01378Z" fill="#F6EDFF"/>
<path d="M29.0119 23.3638C27.8772 23.3666 26.5319 23.4143 25.4028 23.3638C25.3817 21.4195 25.4077 20.4178 25.4028 18.4594C23.7231 18.4382 16.6462 18.4552 14.9648 18.4594C14.9932 19.6577 15.3742 20.8983 15.9789 21.8687C16.8137 23.1882 18.0679 24.0697 19.4651 24.3192C19.1928 24.3773 18.9977 24.3505 18.7448 24.3835C17.8858 24.3333 16.9701 24.3947 16.1057 24.3601C15.8114 24.3483 15.4714 24.3614 15.2564 24.6225C15.1444 24.7565 15.0681 24.9248 15.0363 25.1076C14.9714 25.4884 14.9973 26.4688 14.9971 26.9113C14.9928 28.0629 14.996 29.2146 15.0065 30.3661L20.0235 30.3715C20.0641 28.8736 20.003 27.3559 20.0186 25.8561C20.0222 25.5089 20.0095 25.1438 20.0511 24.8002C20.2186 27.4338 22.0422 29.766 24.2514 30.2847C24.9564 30.4503 25.5731 30.4142 26.2845 30.4104L28.1365 30.4053L35.134 30.3871C35.1541 29.4248 35.1232 28.3854 35.1203 27.4149C35.1257 26.3979 35.1189 24.3806 35.134 23.3638H29.0119Z" fill="#FFB81C"/>
<path d="M19.4654 24.3193C19.5631 24.3121 19.7914 24.2975 19.8683 24.3597C19.5926 24.4003 19.0203 24.4189 18.7451 24.3837C18.9981 24.3507 19.1931 24.3775 19.4654 24.3193Z" fill="#424244"/>
<path d="M45.1575 23.554H51.2359C52.372 23.5505 54.1061 23.4981 55.2249 23.5539C55.2022 25.0469 54.4102 27.3096 53.5429 28.4158C52.5893 29.6226 51.3623 30.3278 49.9426 30.4061L49.839 30.4094C48.4881 30.4409 47.1311 30.4096 45.7828 30.4185C44.2751 30.4285 43.0078 29.9641 41.9127 28.7341C40.8882 27.5895 40.2356 25.2011 40.2188 23.554C41.9154 23.5656 43.4608 23.5658 45.1575 23.554Z" fill="#F6EDFF"/>
<path d="M16.0738 0.408552C17.8705 0.35584 22.0921 0.334278 23.8833 0.408563C25.2638 0.465788 25.4058 2.20884 25.4029 3.03933V5.93456V15.1951H21.6748L14.7656 15.1852L14.7698 5.93456C14.7706 4.53787 14.7582 3.14001 14.7794 1.74386C14.7915 0.942081 15.2333 0.542679 16.0738 0.408552Z" fill="#FFB81C"/>
<path d="M39.8628 0.0216548C39.9599 0.00699937 40.1702 0.00495804 40.2762 0C40.2917 1.97235 40.2244 3.98933 40.3028 5.94302C39.8197 5.91261 39.1613 5.93514 38.6607 5.9358L35.7452 5.93412L35.2451 5.91895C35.331 2.93399 37.2562 0.329199 39.8628 0.0216548Z" fill="#FFDE59"/>
<path d="M37.3212 24.5417C38.6695 24.3267 39.9132 25.4169 40.0986 26.9764C40.284 28.5359 39.341 29.9738 37.9924 30.1877C36.6446 30.4016 35.4019 29.3115 35.2166 27.7527C35.0313 26.194 35.9734 24.7566 37.3212 24.5417Z" fill="#F6EDFF"/>
<path d="M4.19501 38.1469C3.84736 38.1469 3.5806 38.0437 3.39473 37.8371C3.20886 37.6272 3.11593 37.3363 3.11593 36.9646V34.8684H3.61675H3.66838V34.9148C3.64772 34.9355 3.63396 34.9579 3.62707 34.9819C3.62363 35.006 3.62191 35.0473 3.62191 35.1059V36.9697C3.62191 37.2038 3.66321 37.3897 3.74582 37.5273C3.83187 37.665 3.98332 37.7339 4.20017 37.7339C4.42047 37.7339 4.57364 37.665 4.65969 37.5273C4.74574 37.3897 4.78877 37.1986 4.78877 36.9542V34.8684H5.28959V36.9491C5.28959 37.2244 5.24312 37.4499 5.15018 37.6254C5.05725 37.801 4.92817 37.9318 4.76295 38.0178C4.60117 38.1039 4.41186 38.1469 4.19501 38.1469ZM5.86785 38.085V37.6668H6.49775V35.2866H5.89883V34.8684H7.61814V35.2866H6.98824V37.6719H7.64912V38.085H5.86785ZM8.61978 36.6651V36.2314H10.1067V36.6651H8.61978ZM11.9396 38.1469C11.592 38.1469 11.3252 38.0437 11.1394 37.8371C10.9535 37.6272 10.8606 37.3363 10.8606 36.9646V34.8684H11.3614H11.413V34.9148C11.3924 34.9355 11.3786 34.9579 11.3717 34.9819C11.3683 35.006 11.3665 35.0473 11.3665 35.1059V36.9697C11.3665 37.2038 11.4078 37.3897 11.4905 37.5273C11.5765 37.665 11.728 37.7339 11.9448 37.7339C12.1651 37.7339 12.3183 37.665 12.4043 37.5273C12.4904 37.3897 12.5334 37.1986 12.5334 36.9542V34.8684H13.0342V36.9491C13.0342 37.2244 12.9877 37.4499 12.8948 37.6254C12.8019 37.801 12.6728 37.9318 12.5076 38.0178C12.3458 38.1039 12.1565 38.1469 11.9396 38.1469ZM13.4008 38.085L14.2527 36.4431L13.4163 34.8632H13.9378L14.5263 35.9784L15.1046 34.8632H15.6003L14.8103 36.4379L15.6984 38.085H15.1562L14.5315 36.9181L13.9274 38.085H13.4008ZM18.631 38.0901V34.8684H19.4313C19.6206 34.8684 19.7789 34.8856 19.9063 34.92C20.0371 34.9544 20.1472 35.0043 20.2367 35.0697C20.3297 35.1351 20.4105 35.216 20.4794 35.3124C20.5517 35.4088 20.6119 35.5172 20.6601 35.6377C20.7117 35.7581 20.7496 35.8906 20.7737 36.0352C20.7978 36.1763 20.8098 36.3295 20.8098 36.4947C20.8064 36.7426 20.7754 36.9646 20.7169 37.1608C20.6618 37.357 20.5758 37.5239 20.4587 37.6616C20.3451 37.7993 20.1989 37.906 20.0199 37.9817C19.8409 38.054 19.624 38.0901 19.3693 38.0901H18.631ZM19.1215 37.6874H19.359C19.5896 37.6874 19.7738 37.6409 19.9114 37.548C20.0526 37.4516 20.1541 37.3157 20.2161 37.1401C20.2815 36.9611 20.3142 36.7512 20.3142 36.5102C20.3142 36.2555 20.2849 36.0369 20.2264 35.8545C20.1679 35.6721 20.0732 35.531 19.9424 35.4311C19.8151 35.3279 19.6378 35.2762 19.4106 35.2762H19.1215V37.6874ZM22.3742 38.1418C22.2021 38.1418 22.0438 38.1142 21.8992 38.0591C21.7547 38.0041 21.629 37.9249 21.5223 37.8216C21.4191 37.7149 21.3382 37.5841 21.2797 37.4292C21.2211 37.2744 21.1919 37.0988 21.1919 36.9026C21.1919 36.703 21.2211 36.5257 21.2797 36.3708C21.3382 36.2125 21.4173 36.08 21.5172 35.9733C21.6204 35.8666 21.7392 35.7839 21.8734 35.7254C22.0111 35.6669 22.1574 35.6377 22.3123 35.6377C22.4465 35.6377 22.5739 35.6618 22.6943 35.7099C22.8183 35.7581 22.925 35.8304 23.0145 35.9268C23.1074 36.0197 23.1797 36.1385 23.2313 36.283C23.2864 36.4276 23.3139 36.5963 23.3139 36.789C23.3139 36.8234 23.3139 36.863 23.3139 36.9078C23.3139 36.9491 23.3122 36.9852 23.3088 37.0162H21.6875C21.6944 37.1401 21.7185 37.2485 21.7598 37.3415C21.8011 37.431 21.8528 37.505 21.9147 37.5635C21.9801 37.622 22.0541 37.665 22.1367 37.6926C22.2193 37.7201 22.3054 37.7339 22.3949 37.7339C22.4741 37.7339 22.5463 37.727 22.6117 37.7132C22.6806 37.696 22.746 37.6702 22.8079 37.6358C22.8699 37.6014 22.9267 37.5549 22.9783 37.4964L23.2468 37.7597C23.1745 37.8457 23.0936 37.918 23.0041 37.9765C22.9146 38.0316 22.8165 38.0729 22.7098 38.1005C22.6066 38.128 22.4947 38.1418 22.3742 38.1418ZM21.6979 36.629H22.8131C22.8131 36.5326 22.801 36.4483 22.777 36.376C22.7529 36.3037 22.7167 36.2417 22.6685 36.1901C22.6238 36.1385 22.5687 36.1006 22.5033 36.0765C22.4379 36.049 22.3656 36.0352 22.2865 36.0352C22.2107 36.0352 22.1402 36.0473 22.0748 36.0714C22.0128 36.0955 21.956 36.1316 21.9044 36.1798C21.8528 36.228 21.808 36.2899 21.7702 36.3657C21.7357 36.4379 21.7116 36.5257 21.6979 36.629ZM24.8835 38.1418C24.7389 38.1418 24.603 38.128 24.4756 38.1005C24.3483 38.0729 24.2278 38.0316 24.1142 37.9765C24.004 37.9215 23.9025 37.8509 23.8096 37.7648L24.0471 37.3312L24.0781 37.2847L24.1142 37.3053C24.1211 37.3329 24.1297 37.3621 24.14 37.3931C24.1503 37.4206 24.1744 37.4551 24.2123 37.4964C24.2949 37.5687 24.3896 37.6272 24.4963 37.6719C24.603 37.7132 24.7338 37.7339 24.8887 37.7339C24.9954 37.7339 25.0849 37.7218 25.1571 37.6977C25.2329 37.6702 25.2914 37.6341 25.3327 37.5893C25.374 37.5411 25.3946 37.4878 25.3946 37.4292C25.3946 37.3845 25.3826 37.3466 25.3585 37.3157C25.3378 37.2812 25.3051 37.2503 25.2604 37.2227C25.2157 37.1917 25.1571 37.1625 25.0849 37.135C25.0126 37.104 24.9248 37.0747 24.8215 37.0472C24.646 36.9955 24.4928 36.937 24.362 36.8716C24.2312 36.8028 24.1297 36.7219 24.0574 36.629C23.9851 36.536 23.949 36.4259 23.949 36.2985C23.949 36.1712 23.9851 36.0593 24.0574 35.9629C24.1331 35.8631 24.2398 35.7839 24.3775 35.7254C24.5152 35.6669 24.6787 35.6377 24.868 35.6377C24.9713 35.6377 25.0676 35.6463 25.1571 35.6635C25.2501 35.6772 25.3344 35.6996 25.4101 35.7306C25.4893 35.7616 25.5633 35.8012 25.6321 35.8493C25.701 35.8941 25.7664 35.9474 25.8283 36.0094L25.565 36.3605L25.534 36.4018L25.4979 36.3708C25.4945 36.3433 25.4859 36.3175 25.4721 36.2934C25.4618 36.2693 25.4377 36.2383 25.3998 36.2004C25.3241 36.1454 25.2415 36.1041 25.152 36.0765C25.0625 36.049 24.9713 36.0352 24.8783 36.0352C24.7579 36.0352 24.6512 36.0559 24.5582 36.0972C24.4687 36.1385 24.424 36.2004 24.424 36.283C24.424 36.3312 24.4429 36.376 24.4808 36.4173C24.5221 36.4586 24.5875 36.4999 24.677 36.5412C24.7665 36.5791 24.8887 36.6186 25.0436 36.6599C25.2397 36.7116 25.3981 36.7718 25.5186 36.8407C25.639 36.9061 25.7268 36.9835 25.7819 37.073C25.8404 37.1625 25.8696 37.2675 25.8696 37.3879C25.8696 37.5222 25.8318 37.6478 25.7561 37.7648C25.6838 37.8784 25.5736 37.9697 25.4256 38.0385C25.2776 38.1073 25.0969 38.1418 24.8835 38.1418ZM26.6028 38.085V37.6771H27.1966V36.1023H26.6286V35.6945H27.7129V37.6771H28.255V38.085H26.6028ZM27.4237 35.2659C27.3308 35.2659 27.2516 35.2349 27.1862 35.173C27.1243 35.1076 27.0933 35.0319 27.0933 34.9458C27.0933 34.8529 27.1243 34.7754 27.1862 34.7135C27.2482 34.6515 27.3274 34.6205 27.4237 34.6205C27.5132 34.6205 27.5907 34.6532 27.6561 34.7186C27.7249 34.784 27.7593 34.8598 27.7593 34.9458C27.7593 35.0319 27.7249 35.1076 27.6561 35.173C27.5907 35.2349 27.5132 35.2659 27.4237 35.2659ZM29.964 38.9937C29.7988 38.9937 29.649 38.9799 29.5148 38.9524C29.3805 38.9248 29.2652 38.8835 29.1689 38.8284C29.0759 38.7768 29.0054 38.7114 28.9572 38.6322C28.909 38.5565 28.8849 38.4705 28.8849 38.3741C28.8849 38.2846 28.9055 38.2037 28.9468 38.1314C28.9881 38.0591 29.0432 37.9972 29.1121 37.9456C29.1809 37.8905 29.2566 37.8492 29.3392 37.8216L29.5664 37.9249C29.5113 37.9593 29.4632 37.9937 29.4218 38.0282C29.3805 38.0626 29.3478 38.1005 29.3237 38.1418C29.3031 38.1865 29.2928 38.2381 29.2928 38.2966C29.2928 38.3483 29.31 38.393 29.3444 38.4309C29.3788 38.4688 29.427 38.4997 29.489 38.5238C29.5509 38.5479 29.6249 38.5668 29.711 38.5806C29.797 38.5944 29.8934 38.6013 30.0001 38.6013C30.1412 38.6013 30.2583 38.5875 30.3512 38.56C30.4441 38.5359 30.513 38.4997 30.5577 38.4515C30.6059 38.4034 30.63 38.3483 30.63 38.2863C30.63 38.2244 30.6162 38.1745 30.5887 38.1366C30.5612 38.1022 30.5095 38.0764 30.4338 38.0591C30.3581 38.0385 30.2479 38.0282 30.1034 38.0282C29.9863 38.0282 29.8745 38.0247 29.7678 38.0178C29.6645 38.0075 29.5681 37.9903 29.4786 37.9662C29.3926 37.9421 29.3169 37.9111 29.2515 37.8733C29.1861 37.8354 29.1344 37.7889 29.0966 37.7339C29.0622 37.6754 29.0449 37.6065 29.0449 37.5273C29.0449 37.4241 29.0759 37.3312 29.1379 37.2485C29.1998 37.1625 29.2773 37.085 29.3702 37.0162L29.6026 37.1608C29.5716 37.1952 29.544 37.2244 29.5199 37.2485C29.4959 37.2726 29.4769 37.2967 29.4632 37.3208C29.4494 37.3415 29.4425 37.3673 29.4425 37.3983C29.4425 37.443 29.4683 37.4809 29.5199 37.5119C29.5716 37.5428 29.6542 37.5652 29.7678 37.579C29.8848 37.5927 30.0397 37.5996 30.2325 37.5996C30.3942 37.5996 30.5285 37.6168 30.6352 37.6513C30.7453 37.6822 30.8314 37.727 30.8933 37.7855C30.9553 37.844 30.9983 37.9111 31.0224 37.9869C31.0499 38.0591 31.0637 38.14 31.0637 38.2295C31.0637 38.3259 31.0431 38.4188 31.0018 38.5083C30.9604 38.6013 30.895 38.6839 30.8056 38.7562C30.7195 38.8284 30.6059 38.8852 30.4648 38.9265C30.3271 38.9713 30.1602 38.9937 29.964 38.9937ZM29.8969 37.2795C29.7282 37.2795 29.5785 37.2434 29.4477 37.1711C29.3169 37.0954 29.2136 36.9955 29.1379 36.8716C29.0656 36.7477 29.0295 36.6083 29.0295 36.4534C29.0295 36.2985 29.0656 36.1591 29.1379 36.0352C29.2136 35.9079 29.3169 35.808 29.4477 35.7358C29.5785 35.66 29.7282 35.6222 29.8969 35.6222C30.069 35.6222 30.2204 35.66 30.3512 35.7358C30.482 35.808 30.5835 35.9079 30.6558 36.0352C30.7315 36.1591 30.7694 36.2985 30.7694 36.4534C30.7694 36.6083 30.7315 36.7477 30.6558 36.8716C30.5835 36.9955 30.482 37.0954 30.3512 37.1711C30.2204 37.2434 30.069 37.2795 29.8969 37.2795ZM29.8969 36.8923C29.9829 36.8923 30.0586 36.8734 30.124 36.8355C30.1894 36.7976 30.2411 36.746 30.2789 36.6806C30.3168 36.6118 30.3357 36.536 30.3357 36.4534C30.3357 36.3674 30.3168 36.2934 30.2789 36.2314C30.2411 36.166 30.1877 36.1144 30.1189 36.0765C30.0535 36.0387 29.9795 36.0197 29.8969 36.0197C29.8177 36.0197 29.7454 36.0387 29.68 36.0765C29.6146 36.1144 29.5613 36.166 29.5199 36.2314C29.4821 36.2968 29.4632 36.3708 29.4632 36.4534C29.4632 36.5326 29.4821 36.6066 29.5199 36.6754C29.5578 36.7408 29.6094 36.7942 29.6748 36.8355C29.7402 36.8734 29.8142 36.8923 29.8969 36.8923ZM30.6248 36.1178L30.4286 35.8752C30.5285 35.7926 30.6369 35.7306 30.7539 35.6893C30.8744 35.6445 31.0069 35.6273 31.1515 35.6377L31.2031 36.0042C31.0964 35.9905 30.9931 35.9922 30.8933 36.0094C30.7935 36.0232 30.704 36.0593 30.6248 36.1178ZM31.611 38.085V35.6945H32.1273V36.061C32.1858 35.975 32.2512 35.901 32.3235 35.839C32.3958 35.7771 32.4767 35.7289 32.5662 35.6945C32.6557 35.6566 32.752 35.6377 32.8553 35.6377C32.9895 35.6377 33.1135 35.6721 33.227 35.7409C33.3406 35.8098 33.4318 35.9182 33.5007 36.0662C33.5695 36.2108 33.6039 36.4035 33.6039 36.6445V38.085H33.0928V36.6496C33.0928 36.5085 33.0773 36.3932 33.0463 36.3037C33.0154 36.2142 32.9706 36.1488 32.9121 36.1075C32.857 36.0662 32.7899 36.0455 32.7107 36.0455C32.6419 36.0455 32.5731 36.061 32.5042 36.092C32.4354 36.123 32.3717 36.166 32.3132 36.2211C32.2581 36.2727 32.2134 36.3381 32.1789 36.4173C32.1445 36.493 32.1273 36.5791 32.1273 36.6754V38.085H31.611ZM37.5227 38.8646V34.7186H37.9926V38.8646H37.5227ZM41.9888 38.085V34.8632H43.9404V35.2866H42.4586V36.1385H43.6565V36.5619H42.4586V38.085H41.9888ZM44.7201 35.6945H45.2519L45.2415 36.376L45.1796 36.3192C45.1968 36.2159 45.2295 36.123 45.2777 36.0404C45.3259 35.9543 45.3844 35.882 45.4532 35.8235C45.5255 35.765 45.6047 35.7203 45.6907 35.6893C45.7768 35.6549 45.8663 35.6377 45.9592 35.6377C46.09 35.6377 46.2088 35.66 46.3155 35.7048C46.4222 35.7495 46.5185 35.8166 46.6046 35.9061L46.3877 36.3295L46.3671 36.376L46.3258 36.3553C46.3155 36.3278 46.3051 36.3003 46.2948 36.2727C46.2845 36.2452 46.2587 36.2125 46.2174 36.1746C46.1657 36.1402 46.1141 36.1144 46.0625 36.0972C46.0143 36.08 45.9575 36.0714 45.8921 36.0714C45.8095 36.0714 45.7286 36.0868 45.6494 36.1178C45.5737 36.1454 45.5049 36.1901 45.4429 36.2521C45.3809 36.314 45.331 36.3932 45.2932 36.4896C45.2588 36.5825 45.2415 36.6961 45.2415 36.8303V38.0901H44.7201V35.6945ZM48.0812 38.1366C47.8644 38.1366 47.6716 38.085 47.503 37.9817C47.3343 37.875 47.2001 37.7287 47.1003 37.5428C47.0004 37.3535 46.9505 37.1367 46.9505 36.8923C46.9505 36.6513 47.0004 36.4379 47.1003 36.2521C47.2001 36.0628 47.3343 35.9147 47.503 35.808C47.6716 35.6979 47.8644 35.6428 48.0812 35.6428C48.2946 35.6428 48.4857 35.6979 48.6543 35.808C48.8264 35.9147 48.9624 36.0628 49.0622 36.2521C49.162 36.4379 49.212 36.6513 49.212 36.8923C49.212 37.1332 49.162 37.3484 49.0622 37.5377C48.9624 37.7235 48.8264 37.8698 48.6543 37.9765C48.4857 38.0832 48.2946 38.1366 48.0812 38.1366ZM48.0812 37.7184C48.1983 37.7184 48.3015 37.684 48.391 37.6151C48.484 37.5428 48.5562 37.4447 48.6079 37.3208C48.6595 37.1969 48.6853 37.0523 48.6853 36.8871C48.6853 36.7185 48.6595 36.5722 48.6079 36.4483C48.5562 36.3243 48.484 36.228 48.391 36.1591C48.3015 36.0903 48.1983 36.0559 48.0812 36.0559C47.9642 36.0559 47.8592 36.0903 47.7663 36.1591C47.6768 36.228 47.6062 36.3243 47.5546 36.4483C47.503 36.5722 47.4772 36.7185 47.4772 36.8871C47.4772 37.0523 47.503 37.1969 47.5546 37.3208C47.6062 37.4447 47.6768 37.5428 47.7663 37.6151C47.8592 37.684 47.9642 37.7184 48.0812 37.7184ZM49.6818 38.085V35.6945H50.1981V36.061C50.2566 35.975 50.322 35.901 50.3943 35.839C50.4666 35.7771 50.5475 35.7289 50.637 35.6945C50.7265 35.6566 50.8228 35.6377 50.9261 35.6377C51.0603 35.6377 51.1843 35.6721 51.2978 35.7409C51.4114 35.8098 51.5026 35.9182 51.5715 36.0662C51.6403 36.2108 51.6747 36.4035 51.6747 36.6445V38.085H51.1636V36.6496C51.1636 36.5085 51.1481 36.3932 51.1171 36.3037C51.0862 36.2142 51.0414 36.1488 50.9829 36.1075C50.9278 36.0662 50.8607 36.0455 50.7815 36.0455C50.7127 36.0455 50.6438 36.061 50.575 36.092C50.5062 36.123 50.4425 36.166 50.384 36.2211C50.3289 36.2727 50.2842 36.3381 50.2497 36.4173C50.2153 36.493 50.1981 36.5791 50.1981 36.6754V38.085H49.6818ZM53.4973 38.1314C53.3562 38.1314 53.234 38.1091 53.1307 38.0643C53.0309 38.0161 52.95 37.9404 52.8881 37.8371C52.8296 37.7339 52.7883 37.5996 52.7642 37.4344C52.7401 37.2692 52.7315 37.0678 52.7383 36.8303L52.8055 35.1162L53.3321 35.0491L53.3837 35.0439L53.3889 35.0904C53.3717 35.1145 53.3562 35.1386 53.3424 35.1627C53.3321 35.1867 53.3235 35.2281 53.3166 35.2866L53.265 35.9526L53.2856 36.0094L53.2495 36.8303C53.2392 37.0644 53.246 37.2468 53.2701 37.3776C53.2942 37.505 53.3355 37.5945 53.3941 37.6461C53.4526 37.6943 53.5231 37.7184 53.6057 37.7184C53.7159 37.7184 53.814 37.696 53.9 37.6513C53.9895 37.6065 54.0773 37.5514 54.1634 37.486L54.2769 37.8681C54.1599 37.9542 54.0377 38.0196 53.9104 38.0643C53.783 38.1091 53.6453 38.1314 53.4973 38.1314ZM52.2737 35.6945H54.0756L54.0704 36.1075H52.2737V35.6945ZM55.0875 36.6651V36.2314H56.5745V36.6651H55.0875ZM58.5158 38.1418C58.3437 38.1418 58.1854 38.1142 58.0408 38.0591C57.8963 38.0041 57.7706 37.9249 57.6639 37.8216C57.5607 37.7149 57.4798 37.5841 57.4213 37.4292C57.3627 37.2744 57.3335 37.0988 57.3335 36.9026C57.3335 36.703 57.3627 36.5257 57.4213 36.3708C57.4798 36.2125 57.5589 36.08 57.6588 35.9733C57.762 35.8666 57.8808 35.7839 58.015 35.7254C58.1527 35.6669 58.299 35.6377 58.4539 35.6377C58.5881 35.6377 58.7155 35.6618 58.8359 35.7099C58.9599 35.7581 59.0666 35.8304 59.1561 35.9268C59.249 36.0197 59.3213 36.1385 59.3729 36.283C59.428 36.4276 59.4555 36.5963 59.4555 36.789C59.4555 36.8234 59.4555 36.863 59.4555 36.9078C59.4555 36.9491 59.4538 36.9852 59.4504 37.0162H57.8291C57.836 37.1401 57.8601 37.2485 57.9014 37.3415C57.9427 37.431 57.9944 37.505 58.0563 37.5635C58.1217 37.622 58.1957 37.665 58.2783 37.6926C58.3609 37.7201 58.447 37.7339 58.5365 37.7339C58.6157 37.7339 58.6879 37.727 58.7533 37.7132C58.8222 37.696 58.8876 37.6702 58.9495 37.6358C59.0115 37.6014 59.0683 37.5549 59.1199 37.4964L59.3884 37.7597C59.3161 37.8457 59.2352 37.918 59.1457 37.9765C59.0562 38.0316 58.9581 38.0729 58.8514 38.1005C58.7482 38.128 58.6363 38.1418 58.5158 38.1418ZM57.8395 36.629H58.9547C58.9547 36.5326 58.9426 36.4483 58.9186 36.376C58.8945 36.3037 58.8583 36.2417 58.8101 36.1901C58.7654 36.1385 58.7103 36.1006 58.6449 36.0765C58.5795 36.049 58.5072 36.0352 58.4281 36.0352C58.3523 36.0352 58.2818 36.0473 58.2164 36.0714C58.1544 36.0955 58.0976 36.1316 58.046 36.1798C57.9944 36.228 57.9496 36.2899 57.9118 36.3657C57.8773 36.4379 57.8532 36.5257 57.8395 36.629ZM60.008 38.085V35.6945H60.5243V36.061C60.5828 35.975 60.6482 35.901 60.7205 35.839C60.7928 35.7771 60.8736 35.7289 60.9631 35.6945C61.0526 35.6566 61.149 35.6377 61.2523 35.6377C61.3865 35.6377 61.5104 35.6721 61.624 35.7409C61.7376 35.8098 61.8288 35.9182 61.8977 36.0662C61.9665 36.2108 62.0009 36.4035 62.0009 36.6445V38.085H61.4898V36.6496C61.4898 36.5085 61.4743 36.3932 61.4433 36.3037C61.4123 36.2142 61.3676 36.1488 61.3091 36.1075C61.254 36.0662 61.1869 36.0455 61.1077 36.0455C61.0389 36.0455 60.97 36.061 60.9012 36.092C60.8323 36.123 60.7687 36.166 60.7101 36.2211C60.6551 36.2727 60.6103 36.3381 60.5759 36.4173C60.5415 36.493 60.5243 36.5791 60.5243 36.6754V38.085H60.008ZM63.4569 38.1418C63.3296 38.1418 63.2056 38.1159 63.0852 38.0643C62.9681 38.0092 62.8632 37.9301 62.7702 37.8268C62.6773 37.7235 62.6033 37.5927 62.5482 37.4344C62.4966 37.2726 62.4708 37.0868 62.4708 36.8768C62.4708 36.6634 62.4966 36.4792 62.5482 36.3243C62.6033 36.1695 62.6773 36.0421 62.7702 35.9423C62.8632 35.839 62.9699 35.7633 63.0903 35.7151C63.2108 35.6635 63.3364 35.6377 63.4672 35.6377C63.5602 35.6377 63.6445 35.6497 63.7202 35.6738C63.7994 35.6979 63.87 35.734 63.9319 35.7822C63.9939 35.8304 64.0438 35.8906 64.0816 35.9629V34.6309H64.5825H64.6289V34.6773C64.6117 34.698 64.5997 34.7204 64.5928 34.7444C64.5859 34.7685 64.5842 34.8098 64.5876 34.8684V37.7494C64.5876 37.8044 64.5893 37.8612 64.5928 37.9197C64.5997 37.9748 64.6152 38.0299 64.6393 38.085H64.1333C64.1161 38.0471 64.104 38.0127 64.0971 37.9817C64.0902 37.9507 64.0868 37.9197 64.0868 37.8888C64.0868 37.8578 64.0868 37.8251 64.0868 37.7907C64.0386 37.8629 63.9835 37.9266 63.9216 37.9817C63.8596 38.0333 63.7891 38.0729 63.7099 38.1005C63.6307 38.128 63.5464 38.1418 63.4569 38.1418ZM63.5447 37.7184C63.6376 37.7184 63.7168 37.6995 63.7822 37.6616C63.8476 37.6237 63.9009 37.5687 63.9422 37.4964C63.9835 37.4241 64.0145 37.3363 64.0352 37.2331C64.0558 37.1298 64.0662 37.0128 64.0662 36.882C64.0662 36.7064 64.0472 36.5567 64.0094 36.4328C63.9715 36.3054 63.9113 36.209 63.8286 36.1436C63.7495 36.0748 63.6479 36.0404 63.524 36.0404C63.4345 36.0404 63.3554 36.0593 63.2865 36.0972C63.2177 36.135 63.1592 36.1901 63.111 36.2624C63.0662 36.3312 63.0318 36.4156 63.0077 36.5154C62.9836 36.6152 62.9716 36.7271 62.9716 36.851C62.9716 37.0265 62.9957 37.1797 63.0439 37.3105C63.0955 37.4413 63.1643 37.5428 63.2504 37.6151C63.3364 37.684 63.4345 37.7184 63.5447 37.7184Z" fill="#F6EDFF"/>
</svg>
