<svg width="109" height="53" viewBox="0 0 109 53" fill="none" xmlns="http://www.w3.org/2000/svg">
<path fill-rule="evenodd" clip-rule="evenodd" d="M22.8522 13.7935C22.8816 13.7696 22.9442 13.6987 23.0401 13.7759C23.06 13.7918 24.5274 15.3398 24.5931 15.3405C24.6354 15.3409 24.7521 15.4179 24.9078 15.2161C24.9306 15.1864 24.9715 15.151 25.0012 15.1241C25.306 14.8477 27.0194 13.0961 27.1893 12.9991C27.3477 12.9085 27.4256 12.896 27.5608 12.9399C27.7326 12.9957 27.8501 13.2185 27.8964 13.2662C32.2649 17.7705 43.2127 29.0586 45.4308 31.3341C45.6974 31.6075 45.8093 31.7555 45.8668 31.8502C46.8614 33.4891 45.9389 34.45 45.8391 34.597C45.8217 34.6227 41.5802 39.0257 41.5369 39.0501C41.3816 39.1372 41.2117 38.9566 41.2083 38.9531C41.2068 38.9515 41.2045 38.9488 41.2028 38.9478C41.1333 38.9062 34.3504 31.9681 34.2212 31.8546C33.1212 30.8884 32.6961 31.5739 32.6669 31.5966C32.6034 31.6458 24.7778 39.483 24.675 39.5604C23.3677 40.5448 22.3873 39.6073 22.1689 39.4046C20.4002 37.7623 13.8967 30.8771 13.8873 30.8711C13.8739 30.8626 13.7921 30.8102 13.6914 30.8582C13.6716 30.8675 13.666 30.8951 13.6496 30.9098C13.4258 31.109 13.4252 31.1078 13.4094 31.1257C13.3743 31.1656 13.3514 31.2156 13.3166 31.2556C13.2877 31.2888 13.2801 31.2795 12.9264 31.6416C12.7231 31.8497 12.7247 31.848 12.7073 31.8659C12.416 32.1663 8.97032 35.9815 7.3571 37.3852C5.97791 38.5852 4.48417 37.859 4.18603 37.5848C3.3946 36.8567 2.03169 35.4044 0.244389 33.5596C0.189349 33.5029 0.189676 33.5051 0.1354 33.4462C0.0433377 33.3465 0.0250999 33.3544 0.00424123 33.2184C-0.0374762 32.9468 0.239584 32.7549 0.351959 32.639C1.93329 31.0039 9.62164 22.3636 12.3645 20.2512C13.9767 19.0095 14.7815 19.9712 14.8924 20.0279C15.0599 20.1135 21.8564 27.1672 22.666 28.0068C22.8849 28.234 22.8883 28.2279 23.1044 28.4563C23.2057 28.5634 23.5432 28.9323 23.9478 28.4553C24.5152 27.7858 26.0414 26.1729 26.2372 25.9998C27.1104 25.228 26.6241 23.8786 26.4366 23.7575C26.4287 23.7524 18.2144 15.2632 17.9442 14.9701C17.8132 14.8281 17.7818 14.8185 17.8372 14.6324C17.863 14.5458 19.8181 12.5474 19.8345 12.5339C19.9772 12.417 20.1154 12.4764 20.2341 12.5761C20.3265 12.6536 21.8161 14.302 21.8498 14.3298C21.8692 14.3458 22.0168 14.5763 22.1935 14.3925C22.2121 14.3732 22.727 13.8955 22.8522 13.7935Z" fill="#FFDE59"/>
<path fill-rule="evenodd" clip-rule="evenodd" d="M26.9461 11.4914C26.9962 11.5445 27.0236 11.6161 27.0225 11.6901C27.0215 11.7642 26.992 11.8349 26.9404 11.8866L25.0181 13.8132C24.9666 13.8648 24.8971 13.8932 24.8253 13.8922C24.7535 13.8912 24.6849 13.8609 24.6348 13.8077L22.7681 11.8271C22.718 11.774 22.6906 11.7024 22.6916 11.6284C22.6927 11.5543 22.7223 11.4837 22.7738 11.432L24.6962 9.50544C24.7477 9.45378 24.817 9.42528 24.8888 9.42629C24.9607 9.4273 25.0292 9.45763 25.0793 9.51076L26.9461 11.4914Z" fill="#FFDE59" stroke="black" stroke-width="0.00544187" stroke-miterlimit="1.5" stroke-linecap="round" stroke-linejoin="round"/>
<path fill-rule="evenodd" clip-rule="evenodd" d="M22.8065 12.7753C22.8681 12.8417 22.8656 12.9472 22.8011 13.0108C22.6218 13.1874 22.2809 13.5232 22.1015 13.6999C22.037 13.7634 21.9347 13.7611 21.8731 13.6946C21.7094 13.5179 21.4058 13.1901 21.2421 13.0134C21.1805 12.9469 21.183 12.8414 21.2475 12.7779C21.4268 12.6012 21.7677 12.2654 21.947 12.0888C22.0116 12.0252 22.1139 12.0275 22.1754 12.094C22.3392 12.2707 22.6428 12.5985 22.8065 12.7753Z" fill="#FFDE59" stroke="black" stroke-width="0.00533519" stroke-miterlimit="1.5" stroke-linecap="round" stroke-linejoin="round"/>
<path d="M49.1165 21V9.16485H52.5415L56.0562 18.4716H56.1458L59.6067 9.16485H62.8883V21H60.7364L60.8799 11.4602H60.7006L56.9528 21H54.9803L51.2863 11.4602H51.1069L51.2504 21H49.1165ZM65.6826 21V9.16485H67.96V21H65.6826ZM67.153 21V19.1351H74.5231V21H67.153ZM67.153 15.8535V14.132H73.6444V15.8535H67.153ZM67.153 11.0298V9.16485H74.4872V11.0298H67.153ZM80.9917 21.2331C80.0233 21.2331 79.1506 21.012 78.3736 20.5696C77.6085 20.1273 77.0048 19.4578 76.5624 18.5612C76.1201 17.6646 75.899 16.5409 75.899 15.19C75.899 14.2097 76.0245 13.337 76.2755 12.5719C76.5266 11.7949 76.8972 11.1374 77.3873 10.5994C77.8775 10.0495 78.4752 9.63706 79.1805 9.3621C79.8859 9.07519 80.7047 8.93173 81.6372 8.93173C82.3425 8.93173 82.9761 9.01542 83.538 9.18278C84.1118 9.33819 84.608 9.57131 85.0264 9.88213C85.4448 10.193 85.7735 10.5695 86.0126 11.0119C86.2517 11.4542 86.3892 11.9563 86.4251 12.5181L84.2732 13.1637C84.2493 12.6257 84.1059 12.1834 83.8429 11.8367C83.5918 11.49 83.2631 11.233 82.8566 11.0656C82.4621 10.8983 82.0317 10.8146 81.5655 10.8146C80.8841 10.8146 80.2983 10.964 79.8081 11.2629C79.318 11.5618 78.9414 12.028 78.6784 12.6616C78.4154 13.2952 78.2839 14.1081 78.2839 15.1004C78.2839 15.8535 78.3616 16.505 78.517 17.055C78.6725 17.5929 78.8936 18.0352 79.1805 18.3819C79.4674 18.7167 79.8141 18.9677 80.2206 19.1351C80.627 19.2905 81.0753 19.3682 81.5655 19.3682C82.1274 19.3682 82.6115 19.2725 83.018 19.0813C83.4364 18.89 83.7652 18.5911 84.0042 18.1847C84.2553 17.7782 84.4047 17.2642 84.4525 16.6425H82.0497V14.9569H86.6941V17.0012V21H85.0443L85.1878 17.8978H84.8829C84.7036 18.6389 84.4525 19.2606 84.1298 19.7627C83.807 20.2528 83.3886 20.6234 82.8745 20.8745C82.3605 21.1136 81.7329 21.2331 80.9917 21.2331ZM88.2843 21L92.3728 9.16485H95.6902L99.7787 21H97.3041L94.166 10.976H93.9149L90.741 21H88.2843ZM90.454 18.5612V16.9653H97.9138V18.5612H90.454ZM48.1302 43.1435L47.933 41.0454C48.0645 41.0574 48.19 41.0693 48.3095 41.0813C48.441 41.0932 48.5426 41.0992 48.6144 41.0992C49.1643 41.0992 49.5827 41.0155 49.8696 40.8482C50.1685 40.6808 50.3717 40.4297 50.4793 40.095C50.5869 39.7483 50.6407 39.306 50.6407 38.768V31.1649H52.9181V38.768C52.9181 39.7005 52.7866 40.4955 52.5236 41.153C52.2606 41.8105 51.8421 42.3186 51.2683 42.6772C50.6945 43.0239 49.9294 43.1973 48.973 43.1973C48.8774 43.1973 48.7638 43.1913 48.6323 43.1793C48.5008 43.1674 48.3334 43.1554 48.1302 43.1435ZM55.6659 43V31.1649H60.2385C60.8602 31.1649 61.428 31.2186 61.9421 31.3262C62.4681 31.4219 62.9283 31.5653 63.3229 31.7566C63.7293 31.9479 64.07 32.187 64.345 32.4739C64.6199 32.7488 64.8291 33.0716 64.9726 33.4422C65.1161 33.8009 65.1878 34.2013 65.1878 34.6437C65.1878 35.0621 65.122 35.4446 64.9905 35.7913C64.859 36.126 64.6618 36.4189 64.3988 36.67C64.1477 36.921 63.825 37.1302 63.4304 37.2976C63.0479 37.453 62.5996 37.5666 62.0855 37.6383V37.8714C62.6355 37.9432 63.0838 38.0806 63.4304 38.2839C63.7891 38.4871 64.076 38.768 64.2912 39.1267C64.5064 39.4853 64.6917 39.9456 64.8471 40.5074L65.5644 43H63.0718L62.5159 40.7047C62.4083 40.2265 62.241 39.844 62.0138 39.557C61.7986 39.2701 61.5237 39.0669 61.1889 38.9474C60.8542 38.8278 60.4477 38.768 59.9696 38.768H57.9253V43H55.6659ZM57.9253 37.0286H60.0772C60.9738 37.0286 61.6552 36.8613 62.1214 36.5265C62.5996 36.1918 62.8387 35.6777 62.8387 34.9844C62.8387 34.291 62.6115 33.777 62.1573 33.4422C61.7149 33.1075 61.0335 32.9401 60.113 32.9401H57.9253V37.0286ZM68.3912 43.2152C67.901 43.2152 67.5304 43.1076 67.2794 42.8924C67.0283 42.6772 66.9028 42.3425 66.9028 41.8882C66.9028 41.422 67.0283 41.0813 67.2794 40.8661C67.5304 40.6509 67.901 40.5433 68.3912 40.5433C68.9052 40.5433 69.2878 40.6509 69.5388 40.8661C69.8018 41.0813 69.9333 41.422 69.9333 41.8882C69.9333 42.7729 69.4193 43.2152 68.3912 43.2152Z" fill="#FFDE59"/>
</svg>
