<svg width="513" height="580" viewBox="0 0 513 580" fill="none" xmlns="http://www.w3.org/2000/svg">
<g clip-path="url(#clip0_2_187)">
<path d="M513 0H0V580H513V0Z" fill="#1E1E1E"/>
<path d="M141.748 -285.237L-420.622 429.933" stroke="#B36EFB" stroke-width="6.66667"/>
<path d="M824.896 105.649L262.524 820.816" stroke="#B36EFB" stroke-width="6.66667"/>
<path d="M493.753 -101.018L-68.6193 614.15" stroke="#B36EFB" stroke-width="6.66667"/>
<path d="M325.467 -204.351L-236.905 510.816" stroke="#B36EFB" stroke-width="6.66667"/>
<path d="M1008.61 186.535L446.242 901.703" stroke="#B36EFB" stroke-width="6.66667"/>
<path d="M677.469 -20.1318L115.099 695.037" stroke="#B36EFB" stroke-width="6.66667"/>
<path d="M227.752 -237.684L-334.62 477.484" stroke="#B36EFB" stroke-width="6.66667"/>
<path d="M910.898 153.202L348.528 868.37" stroke="#B36EFB" stroke-width="6.66667"/>
<path d="M579.755 -53.4652L17.3844 661.703" stroke="#B36EFB" stroke-width="6.66667"/>
<path d="M411.469 -156.798L-150.901 558.37" stroke="#B36EFB" stroke-width="6.66667"/>
<path d="M763.474 27.4203L201.102 742.59" stroke="#B36EFB" stroke-width="6.66667"/>
<path d="M172.13 -238.35L-350.577 426.38" stroke="#B36EFB" stroke-width="6.66667"/>
<path d="M855.277 152.536L332.57 817.263" stroke="#B36EFB" stroke-width="6.66667"/>
<path d="M524.134 -54.1309L1.42676 610.597" stroke="#B36EFB" stroke-width="6.66667"/>
<path d="M355.848 -157.464L-166.859 507.263" stroke="#B36EFB" stroke-width="6.66667"/>
<path d="M707.85 26.7545L185.145 691.483" stroke="#B36EFB" stroke-width="6.66667"/>
<path d="M258.134 -190.797L-264.573 473.93" stroke="#B36EFB" stroke-width="6.66667"/>
<path d="M941.279 200.088L418.573 864.817" stroke="#B36EFB" stroke-width="6.66667"/>
<path d="M610.136 -6.57874L87.4303 658.15" stroke="#B36EFB" stroke-width="6.66667"/>
<path d="M441.85 -109.912L-80.8553 554.817" stroke="#B36EFB" stroke-width="6.66667"/>
<path d="M793.855 74.3075L271.148 739.037" stroke="#B36EFB" stroke-width="6.66667"/>
<path d="M156.181 -264.299L-386.181 432.303" stroke="#B36EFB" stroke-width="6.66667"/>
<path d="M839.328 126.587L296.964 823.19" stroke="#B36EFB" stroke-width="6.66667"/>
<path d="M508.185 -80.0797L-34.1777 616.524" stroke="#B36EFB" stroke-width="6.66667"/>
<path d="M339.899 -183.413L-202.464 513.19" stroke="#B36EFB" stroke-width="6.66667"/>
<path d="M1023.05 207.472L480.684 904.077" stroke="#B36EFB" stroke-width="6.66667"/>
<path d="M691.904 0.805664L149.541 697.41" stroke="#B36EFB" stroke-width="6.66667"/>
<path d="M242.185 -216.746L-300.178 479.857" stroke="#B36EFB" stroke-width="6.66667"/>
<path d="M925.333 174.139L382.969 870.743" stroke="#B36EFB" stroke-width="6.66667"/>
<path d="M594.19 -32.5277L51.8265 664.076" stroke="#B36EFB" stroke-width="6.66667"/>
<path d="M425.904 -135.861L-116.459 560.743" stroke="#B36EFB" stroke-width="6.66667"/>
<path d="M777.906 48.3585L235.544 744.96" stroke="#B36EFB" stroke-width="6.66667"/>
<path d="M185.14 -219.244L-333.73 440.607" stroke="#B36EFB" stroke-width="6.66667"/>
<path d="M868.286 171.641L349.415 831.493" stroke="#B36EFB" stroke-width="6.66667"/>
<path d="M537.144 -35.0253L18.2737 624.826" stroke="#B36EFB" stroke-width="6.66667"/>
<path d="M368.858 -138.359L-150.012 521.493" stroke="#B36EFB" stroke-width="6.66667"/>
<path d="M720.863 45.861L201.992 705.71" stroke="#B36EFB" stroke-width="6.66667"/>
<path d="M271.145 -171.692L-247.726 488.16" stroke="#B36EFB" stroke-width="6.66667"/>
<path d="M954.291 219.194L435.42 879.043" stroke="#B36EFB" stroke-width="6.66667"/>
<path d="M623.149 12.5277L104.277 672.377" stroke="#B36EFB" stroke-width="6.66667"/>
<path d="M454.863 -90.8057L-64.0084 569.043" stroke="#B36EFB" stroke-width="6.66667"/>
<path d="M806.865 93.4131L287.994 753.263" stroke="#B36EFB" stroke-width="6.66667"/>
</g>
<defs>
<clipPath id="clip0_2_187">
<rect width="513" height="580" rx="24" fill="white"/>
</clipPath>
</defs>
</svg>
